<svg width="1001" height="500" viewBox="0 0 1001 500" fill="none" xmlns="http://www.w3.org/2000/svg">
<g clip-path="url(#clip0)">
<rect width="1000" height="500" transform="translate(0.5)" fill="white"/>
<path d="M1000.5 10.3L871.19 84.96L847.79 71.45L862.58 62.91C862.82 62.77 862.9 62.47 862.76 62.23C862.62 61.99 862.32 61.91 862.08 62.05L846.79 70.88L823.39 57.37L864.88 33.41C865.12 33.27 865.2 32.97 865.06 32.73C864.92 32.49 864.62 32.41 864.38 32.55L822.4 56.79L774.61 29.2L822.64 1.47C822.88 1.33 822.96 1.03 822.82 0.79C822.68 0.55 822.38 0.47 822.14 0.61L773.61 28.63L750.22 15.12L773.86 1.47C774.1 1.33 774.18 1.03 774.04 0.79C773.9 0.55 773.6 0.47 773.36 0.61L749.22 14.55L725.07 0.6L724.04 0H722.04L723.82 1.03L700.43 14.53L677.04 1.03L678.83 0H676.83L676.05 0.45L675.26 0H673.26L675.04 1.03L651.65 14.53L628.26 1.03L630.05 0H628.05L627.27 0.45L626.48 0H624.48L626.26 1.03L602.87 14.53L579.48 1.03L581.27 0H579.27L578.49 0.45L577.7 0H575.7L577.48 1.03L554.09 14.53L530.7 1.03L532.49 0H530.49L529.71 0.45L528.92 0H526.92L528.7 1.03L505.31 14.53L481.92 1.03L483.71 0H481.71L480.93 0.45L480.15 0H478.15L479.93 1.03L456.54 14.53L433.15 1.03L434.94 0H432.94L432.16 0.45L431.37 0H429.37L431.15 1.03L407.76 14.53L384.37 1.03L386.16 0H384.16L383.38 0.45L382.59 0H380.59L382.37 1.03L358.98 14.53L335.59 1.03L337.38 0H335.38L334.6 0.45L333.81 0H331.81L333.59 1.03L310.2 14.53L286.81 1.03L288.6 0H286.6L285.82 0.45L285.03 0H283.03L284.81 1.03L261.42 14.53L236.25 0H234.25L260.42 15.11L237.03 28.61L187.48 0H185.48L236.04 29.19L212.64 42.7L138.69 0H136.69L211.65 43.28L188.25 56.79L160.02 40.49C159.78 40.35 159.48 40.43 159.34 40.67C159.2 40.91 159.28 41.21 159.52 41.35L187.25 57.36L163.85 70.87L41.1 0H39.1L162.85 71.45L139.46 84.96L83.94 52.9C83.7 52.76 83.4 52.84 83.26 53.08C83.12 53.32 83.2 53.62 83.44 53.76L138.46 85.52L115.06 99.03L0.5 32.89V34.04L114.06 99.61L41.87 141.29L0.5 117.4V118.55L40.88 141.86L17.48 155.37L0.5 145.57V146.72L16.48 155.95L0.5 165.18V166.33L17.48 156.53L40.87 170.03L17.47 183.54L0.5 173.75V174.9L16.47 184.12L0.5 193.34V194.49L17.47 184.69L65.25 212.28L41.85 225.79L0.5 201.92V203.07L40.85 226.36L17.45 239.87L0.5 230.1V231.25L16.45 240.46L0.5 249.67V250.82L17.45 241.04L40.84 254.54L0.5 277.83V278.98L41.83 255.12L65.22 268.62L17.42 296.22L0.5 286.45V287.6L16.42 296.79L0.5 305.99V307.14L17.42 297.37L40.81 310.87L17.41 324.38L0.5 314.63V315.78L16.41 324.97L0.5 334.15V335.3L17.41 325.54L40.8 339.04L17.4 352.55L0.5 342.8V343.95L16.4 353.13L0.5 362.32V363.47L17.4 353.71L40.79 367.21L0.5 390.48V391.63L41.79 367.79L65.18 381.29L0.5 418.64V419.79L66.18 381.87L89.57 395.37L0.5 446.8V447.95L90.57 395.95L113.97 409.46L87.91 424.5C87.67 424.64 87.59 424.94 87.73 425.18C87.82 425.34 87.99 425.43 88.16 425.43C88.24 425.43 88.33 425.41 88.41 425.36L114.96 410.03L138.36 423.54L5.94 500H7.94L139.36 424.13L162.76 437.64L136.57 452.76C136.33 452.9 136.25 453.2 136.39 453.44C136.48 453.6 136.65 453.69 136.82 453.69C136.9 453.69 136.99 453.67 137.07 453.62L163.76 438.21L192.16 454.61C192.24 454.66 192.32 454.68 192.41 454.68C192.58 454.68 192.75 454.59 192.84 454.43C192.98 454.19 192.9 453.89 192.66 453.75L164.76 437.64L188.16 424.13L211.56 437.64L201.74 443.31C201.5 443.45 201.42 443.75 201.56 443.99C201.65 444.15 201.82 444.24 201.99 444.24C202.07 444.24 202.16 444.22 202.24 444.17L212.56 438.21L235.96 451.72L224.13 458.55C223.89 458.69 223.81 458.99 223.95 459.23C224.04 459.39 224.21 459.48 224.38 459.48C224.46 459.48 224.55 459.46 224.63 459.41L236.96 452.29L260.36 465.8L201.1 500H203.1L261.34 466.38L284.74 479.89L273.75 486.23C273.51 486.37 273.43 486.67 273.57 486.91C273.66 487.07 273.83 487.16 274 487.16C274.08 487.16 274.17 487.14 274.25 487.09L285.74 480.46L309.14 493.97L298.68 500H300.68L310.13 494.55L319.58 500H321.58L311.13 493.97L334.53 480.46L357.93 493.97L347.47 500H349.47L358.92 494.54L368.37 500H370.37L359.92 493.96L383.32 480.45L417.18 500H419.18L384.33 479.88L407.73 466.37L465.98 500H467.98L408.72 465.79L432.12 452.28L455.52 465.79L443.32 472.83C443.08 472.97 443 473.27 443.14 473.51C443.23 473.67 443.4 473.76 443.57 473.76C443.65 473.76 443.74 473.74 443.82 473.69L456.52 466.36L504.32 493.96L493.88 500H495.88L505.33 494.54L514.78 500H516.78L506.33 493.96L529.73 480.45L563.59 500H565.59L530.74 479.88L554.14 466.37L601.94 493.97L591.48 500H593.48L602.93 494.54L612.38 500H614.38L603.93 493.96L627.33 480.45L661.18 500H663.18L628.33 479.88L651.73 466.37L673.68 479.04C673.76 479.09 673.85 479.11 673.93 479.11C674.1 479.11 674.27 479.02 674.36 478.86C674.5 478.62 674.42 478.32 674.18 478.18L652.73 465.8L676.13 452.29L723.93 479.89L689.09 500H691.09L724.93 480.46L748.33 493.97L737.89 500H739.89L749.33 494.55L758.77 500H760.77L750.33 493.97L773.73 480.46L807.55 500H809.55L774.72 479.89L822.51 452.3L905.13 500H907.13L823.51 451.72L846.91 438.21L890.48 463.36C890.56 463.41 890.65 463.43 890.73 463.43C890.9 463.43 891.07 463.34 891.16 463.18C891.3 462.94 891.22 462.64 890.98 462.5L847.91 437.64L871.31 424.13L1000.51 498.72V497.57L872.31 423.55L895.71 410.04L913.17 420.12C913.25 420.17 913.34 420.19 913.42 420.19C913.59 420.19 913.76 420.1 913.85 419.94C913.99 419.7 913.91 419.4 913.67 419.26L896.71 409.47L944.49 381.88L1000.52 414.23V413.08L945.49 381.31L968.88 367.81L1000.52 386.08V384.93L969.88 367.24L993.27 353.74L1000.52 357.92V356.77L994.27 353.16L1000.52 349.55V348.4L993.27 352.58L969.87 339.07L993.26 325.57L1000.52 329.76V328.61L994.26 325L1000.52 321.39V320.24L993.26 324.43L969.86 310.92L993.25 297.42L1000.52 301.62V300.47L994.25 296.85L1000.52 293.23V292.08L993.25 296.28L969.85 282.77L993.24 269.27L1000.52 273.48V272.33L994.23 268.7L1000.52 265.07V263.92L993.24 268.13L969.84 254.62L993.23 241.12L1000.53 245.33V244.18L994.23 240.55L1000.53 236.92V235.77L993.23 239.98L969.83 226.47L993.22 212.97L1000.53 217.19V216.04L994.22 212.4L1000.53 208.76V207.61L993.22 211.83L969.82 198.32L993.21 184.82L1000.53 189.05V187.9L994.21 184.25L1000.53 180.6V179.45L993.21 183.68L969.81 170.17L993.2 156.67L1000.53 160.9V159.75L994.2 156.09L1000.53 152.43V151.28L993.2 155.51L969.8 142L1000.53 124.26V123.11L968.8 141.43L945.4 127.92L1000.5 95.96V94.8L944.37 127.21L920.98 113.7L1000.5 67.79V66.64L919.98 113.13L896.58 99.62L1000.5 39.62V38.47L895.58 99.04L872.18 85.53L1000.5 11.45V10.3ZM870.19 85.53L846.8 99.03L823.4 85.52L846.79 72.02L870.19 85.53ZM724.87 253.94L701.48 240.43L724.87 226.93L748.26 240.44L724.87 253.94ZM749.26 241.01L772.66 254.52L749.27 268.02L725.87 254.51L749.26 241.01ZM700.47 239.86L677.07 226.35L700.46 212.85L723.86 226.36L700.47 239.86ZM676.08 225.77L652.68 212.26L676.07 198.76L699.47 212.27L676.08 225.77ZM675.08 226.35L651.69 239.85L628.29 226.34L651.68 212.84L675.08 226.35ZM602.91 241L626.31 254.51L602.91 268.02L579.51 254.51L602.91 241ZM578.51 253.93L555.11 240.42L578.51 226.91L601.91 240.42L578.51 253.93ZM603.91 240.43L627.3 226.93L650.7 240.44L627.31 253.94L603.91 240.43ZM627.29 225.77L603.89 212.26L627.28 198.76L650.68 212.27L627.29 225.77ZM626.29 226.34L602.9 239.84L579.5 226.33L602.89 212.83L626.29 226.34ZM578.51 225.76L555.11 212.25L578.5 198.75L601.9 212.26L578.51 225.76ZM577.51 226.34L554.11 239.85L530.71 226.34L554.11 212.83L577.51 226.34ZM505.32 241L528.72 254.51L505.32 268.02L481.92 254.51L505.32 241ZM480.93 253.93L457.53 240.42L480.93 226.91L504.33 240.42L480.93 253.93ZM506.32 240.43L529.72 226.92L553.12 240.43L529.72 253.94L506.32 240.43ZM529.72 225.76L506.32 212.25L529.72 198.74L553.12 212.25L529.72 225.76ZM528.72 226.34L505.32 239.85L481.92 226.34L505.32 212.83L528.72 226.34ZM480.93 225.76L457.54 212.25L480.94 198.74L504.33 212.25L480.93 225.76ZM479.93 226.34L456.53 239.85L433.14 226.34L456.54 212.83L479.93 226.34ZM432.14 225.76L408.74 212.25L432.14 198.74L455.54 212.25L432.14 225.76ZM431.14 226.34L407.74 239.85L384.34 226.34L407.74 212.83L431.14 226.34ZM310.17 241.01L333.56 254.51L310.16 268.02L286.77 254.52L310.17 241.01ZM285.77 253.94L262.38 240.44L285.78 226.93L309.17 240.43L285.77 253.94ZM311.17 240.43L334.57 226.92L357.96 240.42L334.56 253.93L311.17 240.43ZM358.95 241L382.35 254.51L358.95 268.02L335.55 254.51L358.95 241ZM359.95 240.43L383.35 226.92L406.75 240.43L383.35 253.94L359.95 240.43ZM383.35 225.76L359.96 212.26L383.36 198.75L406.75 212.25L383.35 225.76ZM382.35 226.34L358.95 239.85L335.56 226.35L358.96 212.84L382.35 226.34ZM334.57 225.77L311.18 212.27L334.58 198.76L357.97 212.26L334.57 225.77ZM333.57 226.34L310.17 239.85L286.78 226.35L310.18 212.84L333.57 226.34ZM285.78 225.77L262.39 212.27L285.79 198.76L309.18 212.26L285.78 225.77ZM284.78 226.35L261.38 239.86L237.99 226.36L261.39 212.85L284.78 226.35ZM260.39 240.43L237 253.94L213.61 240.44L237 226.93L260.39 240.43ZM261.39 241.01L284.78 254.51L261.39 268.02L238 254.52L261.39 241.01ZM285.77 255.09L309.16 268.59L285.76 282.1L262.37 268.6L285.77 255.09ZM310.16 269.17L333.56 282.68L310.16 296.19L286.76 282.68L310.16 269.17ZM311.16 268.59L334.56 255.08L357.96 268.59L334.56 282.1L311.16 268.59ZM358.95 269.17L382.35 282.68L358.95 296.19L335.55 282.68L358.95 269.17ZM359.95 268.59L383.35 255.08L406.75 268.59L383.35 282.1L359.95 268.59ZM384.35 254.51L407.75 241L431.15 254.51L407.75 268.02L384.35 254.51ZM408.74 240.43L432.14 226.92L455.53 240.43L432.13 253.94L408.74 240.43ZM456.53 241L479.93 254.51L456.53 268.02L433.13 254.51L456.53 241ZM480.93 255.09L504.33 268.6L480.93 282.11L457.53 268.6L480.93 255.09ZM505.32 269.17L528.72 282.68L505.32 296.19L481.92 282.68L505.32 269.17ZM506.32 268.59L529.72 255.08L553.12 268.59L529.72 282.1L506.32 268.59ZM530.72 254.51L554.12 241L577.52 254.51L554.12 268.02L530.72 254.51ZM578.51 255.09L601.91 268.6L578.51 282.11L555.11 268.6L578.51 255.09ZM602.91 269.17L626.31 282.68L602.91 296.19L579.51 282.68L602.91 269.17ZM603.91 268.59L627.31 255.08L650.71 268.59L627.31 282.1L603.91 268.59ZM628.3 254.51L651.69 241.01L675.09 254.52L651.7 268.02L628.3 254.51ZM652.69 240.43L676.08 226.93L699.48 240.44L676.09 253.94L652.69 240.43ZM700.47 241.01L723.87 254.52L700.48 268.02L677.09 254.51L700.47 241.01ZM724.87 255.09L748.27 268.6L724.88 282.1L701.48 268.59L724.87 255.09ZM749.26 269.18L772.66 282.69L749.27 296.19L725.87 282.68L749.26 269.18ZM750.26 268.6L773.65 255.1L797.05 268.61L773.66 282.11L750.26 268.6ZM774.65 254.52L798.04 241.02L821.44 254.53L798.05 268.03L774.65 254.52ZM773.65 253.94L750.25 240.43L773.64 226.93L797.04 240.44L773.65 253.94ZM749.26 239.86L725.87 226.35L749.26 212.85L772.65 226.36L749.26 239.86ZM724.86 225.77L701.46 212.26L724.85 198.76L748.25 212.27L724.86 225.77ZM700.47 211.69L677.07 198.18L700.46 184.68L723.86 198.19L700.47 211.69ZM676.07 197.61L652.67 184.1L676.06 170.6L699.46 184.11L676.07 197.61ZM675.07 198.18L651.68 211.68L628.28 198.17L651.67 184.67L675.07 198.18ZM627.29 197.6L603.89 184.09L627.28 170.59L650.68 184.1L627.29 197.6ZM626.29 198.18L602.9 211.68L579.5 198.18L602.89 184.68L626.29 198.18ZM578.5 197.6L555.1 184.09L578.49 170.59L601.89 184.1L578.5 197.6ZM577.5 198.18L554.11 211.68L530.71 198.17L554.1 184.67L577.5 198.18ZM529.72 197.59L506.33 184.08L529.72 170.58L553.11 184.09L529.72 197.59ZM528.72 198.17L505.32 211.68L481.93 198.17L505.33 184.66L528.72 198.17ZM480.93 197.59L457.53 184.08L480.93 170.57L504.33 184.08L480.93 197.59ZM479.93 198.17L456.53 211.68L433.13 198.17L456.53 184.66L479.93 198.17ZM432.14 197.59L408.75 184.09L432.15 170.58L455.54 184.08L432.14 197.59ZM431.14 198.17L407.74 211.68L384.35 198.18L407.75 184.67L431.14 198.17ZM383.36 197.6L359.97 184.1L383.37 170.59L406.76 184.09L383.36 197.6ZM382.36 198.18L358.96 211.69L335.57 198.19L358.97 184.68L382.36 198.18ZM334.57 197.6L311.18 184.1L334.58 170.59L357.97 184.09L334.57 197.6ZM333.57 198.18L310.17 211.69L286.78 198.19L310.18 184.68L333.57 198.18ZM285.79 197.61L262.4 184.11L285.8 170.6L309.19 184.1L285.79 197.61ZM284.79 198.18L261.39 211.69L238 198.19L261.4 184.68L284.79 198.18ZM260.39 212.27L236.99 225.78L213.6 212.28L237 198.77L260.39 212.27ZM236 226.35L212.61 239.86L189.22 226.36L212.61 212.85L236 226.35ZM235.99 254.52L212.59 268.03L189.2 254.53L212.6 241.02L235.99 254.52ZM236.99 255.09L260.38 268.59L236.98 282.1L213.59 268.6L236.99 255.09ZM261.38 269.18L284.77 282.68L261.37 296.19L237.98 282.69L261.38 269.18ZM285.77 283.26L309.17 296.77L285.77 310.28L262.37 296.77L285.77 283.26ZM310.16 297.34L333.56 310.85L310.16 324.36L286.76 310.85L310.16 297.34ZM311.16 296.76L334.56 283.25L357.96 296.76L334.56 310.27L311.16 296.76ZM358.95 297.34L382.35 310.85L358.95 324.36L335.55 310.85L358.95 297.34ZM359.95 296.76L383.35 283.25L406.75 296.76L383.35 310.27L359.95 296.76ZM384.35 282.68L407.75 269.17L431.15 282.68L407.75 296.19L384.35 282.68ZM408.74 268.59L432.14 255.08L455.54 268.59L432.14 282.1L408.74 268.59ZM456.53 269.17L479.93 282.68L456.53 296.19L433.13 282.68L456.53 269.17ZM480.93 283.26L504.33 296.77L480.93 310.28L457.53 296.77L480.93 283.26ZM505.33 297.34L528.73 310.85L505.33 324.36L481.93 310.85L505.33 297.34ZM506.32 296.76L529.72 283.25L553.12 296.76L529.72 310.27L506.32 296.76ZM530.72 282.68L554.12 269.17L577.52 282.68L554.12 296.19L530.72 282.68ZM578.51 283.26L601.91 296.77L578.51 310.28L555.11 296.77L578.51 283.26ZM602.91 297.34L626.3 310.85L602.9 324.36L579.5 310.85L602.91 297.34ZM603.91 296.76L627.31 283.25L650.71 296.76L627.31 310.27L603.91 296.76ZM628.3 282.68L651.7 269.17L675.1 282.68L651.7 296.19L628.3 282.68ZM652.7 268.6L676.09 255.1L699.49 268.61L676.1 282.11L652.7 268.6ZM700.48 269.18L723.88 282.69L700.49 296.19L677.09 282.68L700.48 269.18ZM724.88 283.26L748.28 296.77L724.89 310.27L701.49 296.76L724.88 283.26ZM749.28 297.35L772.68 310.86L749.29 324.36L725.89 310.85L749.28 297.35ZM750.28 296.77L773.67 283.27L797.07 296.78L773.68 310.28L750.28 296.77ZM774.67 282.69L798.06 269.19L821.46 282.7L798.07 296.2L774.67 282.69ZM799.05 268.61L822.44 255.11L845.84 268.62L822.45 282.12L799.05 268.61ZM822.44 253.95L799.04 240.44L822.43 226.94L845.83 240.45L822.44 253.95ZM798.04 239.86L774.64 226.35L798.03 212.85L821.43 226.36L798.04 239.86ZM773.65 225.78L750.26 212.27L773.65 198.77L797.04 212.28L773.65 225.78ZM749.25 211.69L725.85 198.18L749.24 184.68L772.64 198.19L749.25 211.69ZM724.86 197.61L701.46 184.1L724.85 170.6L748.25 184.11L724.86 197.61ZM724.85 169.44L701.45 155.93L724.84 142.43L748.24 155.94L724.85 169.44ZM723.85 170.02L700.46 183.52L677.06 170.01L700.45 156.51L723.85 170.02ZM676.07 169.44L652.67 155.93L676.06 142.43L699.46 155.94L676.07 169.44ZM675.07 170.02L651.68 183.52L628.28 170.01L651.67 156.51L675.07 170.02ZM627.28 169.44L603.88 155.93L627.27 142.43L650.67 155.94L627.28 169.44ZM626.28 170.01L602.89 183.51L579.5 170.01L602.89 156.51L626.28 170.01ZM578.5 169.43L555.11 155.92L578.5 142.42L601.89 155.93L578.5 169.43ZM577.5 170.01L554.11 183.51L530.72 170L554.11 156.5L577.5 170.01ZM529.71 169.43L506.31 155.92L529.7 142.42L553.1 155.93L529.71 169.43ZM528.71 170.01L505.32 183.51L481.93 170L505.32 156.5L528.71 170.01ZM480.93 169.43L457.54 155.93L480.93 142.43L504.32 155.93L480.93 169.43ZM479.93 170L456.53 183.51L433.14 170.01L456.54 156.5L479.93 170ZM432.15 169.43L408.76 155.93L432.16 142.42L455.55 155.92L432.15 169.43ZM431.15 170.01L407.75 183.52L384.36 170.02L407.76 156.51L431.15 170.01ZM383.36 169.43L359.97 155.93L383.37 142.42L406.76 155.92L383.36 169.43ZM382.36 170.01L358.96 183.52L335.57 170.02L358.97 156.51L382.36 170.01ZM334.58 169.44L311.19 155.94L334.59 142.43L357.98 155.93L334.58 169.44ZM333.58 170.01L310.19 183.52L286.8 170.02L310.19 156.51L333.58 170.01ZM285.79 169.44L262.4 155.94L285.79 142.43L309.18 155.93L285.79 169.44ZM284.79 170.02L261.39 183.53L238 170.03L261.4 156.52L284.79 170.02ZM260.4 184.1L237 197.61L213.61 184.11L237.01 170.6L260.4 184.1ZM236 198.19L212.6 211.7L189.21 198.2L212.61 184.69L236 198.19ZM211.61 212.27L188.22 225.78L164.83 212.28L188.22 198.77L211.61 212.27ZM211.6 240.44L188.2 253.95L164.81 240.45L188.21 226.94L211.6 240.44ZM211.6 268.6L188.2 282.11L164.81 268.61L188.21 255.1L211.6 268.6ZM212.59 269.18L235.98 282.68L212.58 296.19L189.19 282.69L212.59 269.18ZM236.98 283.26L260.37 296.76L236.97 310.27L213.58 296.77L236.98 283.26ZM261.37 297.34L284.77 310.85L261.37 324.36L237.97 310.85L261.37 297.34ZM285.77 311.43L309.17 324.94L285.77 338.45L262.37 324.94L285.77 311.43ZM310.16 325.51L333.56 339.02L310.16 352.53L286.76 339.02L310.16 325.51ZM311.16 324.93L334.56 311.42L357.96 324.93L334.56 338.44L311.16 324.93ZM358.95 325.51L382.35 339.02L358.95 352.53L335.55 339.02L358.95 325.51ZM359.95 324.93L383.35 311.42L406.75 324.93L383.35 338.44L359.95 324.93ZM384.35 310.85L407.75 297.34L431.15 310.85L407.75 324.36L384.35 310.85ZM408.74 296.76L432.14 283.25L455.54 296.76L432.14 310.27L408.74 296.76ZM456.53 297.34L479.93 310.85L456.53 324.36L433.13 310.85L456.53 297.34ZM480.93 311.43L504.33 324.94L480.93 338.45L457.53 324.94L480.93 311.43ZM505.33 325.51L528.73 339.02L505.33 352.53L481.93 339.02L505.33 325.51ZM506.32 324.93L529.72 311.42L553.12 324.93L529.72 338.44L506.32 324.93ZM530.72 310.85L554.12 297.34L577.52 310.85L554.12 324.36L530.72 310.85ZM578.51 311.43L601.91 324.94L578.51 338.45L555.11 324.94L578.51 311.43ZM602.91 325.51L626.31 339.02L602.91 352.53L579.51 339.02L602.91 325.51ZM603.91 324.93L627.31 311.42L650.71 324.93L627.31 338.44L603.91 324.93ZM628.3 310.85L651.7 297.34L675.1 310.85L651.7 324.36L628.3 310.85ZM652.7 296.76L676.1 283.25L699.5 296.76L676.1 310.27L652.7 296.76ZM700.49 297.34L723.89 310.85L700.49 324.36L677.09 310.85L700.49 297.34ZM724.89 311.43L748.29 324.94L724.89 338.45L701.49 324.94L724.89 311.43ZM749.29 325.52L772.69 339.03L749.29 352.54L725.89 339.03L749.29 325.52ZM750.29 324.94L773.68 311.44L797.08 324.95L773.69 338.45L750.29 324.94ZM774.68 310.86L798.07 297.36L821.47 310.87L798.08 324.37L774.68 310.86ZM799.07 296.78L822.46 283.28L845.86 296.79L822.47 310.29L799.07 296.78ZM823.46 282.7L846.85 269.2L870.25 282.71L846.86 296.21L823.46 282.7ZM846.84 268.04L823.44 254.53L846.83 241.03L870.23 254.54L846.84 268.04ZM846.83 239.87L823.43 226.36L846.82 212.86L870.22 226.37L846.83 239.87ZM822.43 225.78L799.03 212.27L822.42 198.77L845.82 212.28L822.43 225.78ZM798.04 211.7L774.65 198.19L798.04 184.69L821.43 198.2L798.04 211.7ZM773.64 197.61L750.24 184.1L773.63 170.6L797.03 184.11L773.64 197.61ZM749.25 183.53L725.85 170.02L749.24 156.52L772.64 170.03L749.25 183.53ZM749.24 155.36L725.84 141.85L749.23 128.35L772.63 141.86L749.24 155.36ZM724.85 141.28L701.45 127.77L724.84 114.27L748.24 127.78L724.85 141.28ZM723.85 141.85L700.46 155.35L677.06 141.84L700.45 128.34L723.85 141.85ZM676.06 141.27L652.66 127.76L676.05 114.26L699.45 127.77L676.06 141.27ZM675.06 141.85L651.67 155.35L628.27 141.84L651.66 128.34L675.06 141.85ZM627.28 141.27L603.89 127.76L627.28 114.26L650.67 127.77L627.28 141.27ZM626.28 141.85L602.89 155.35L579.5 141.84L602.89 128.34L626.28 141.85ZM578.49 141.27L555.09 127.76L578.48 114.26L601.88 127.77L578.49 141.27ZM577.49 141.84L554.1 155.34L530.7 141.83L554.09 128.33L577.49 141.84ZM529.71 141.26L506.32 127.76L529.71 114.26L553.1 127.76L529.71 141.26ZM528.71 141.84L505.32 155.34L481.93 141.84L505.32 128.34L528.71 141.84ZM480.93 141.26L457.54 127.76L480.93 114.26L504.32 127.76L480.93 141.26ZM479.93 141.84L456.54 155.34L433.15 141.84L456.54 128.34L479.93 141.84ZM432.15 141.26L408.76 127.76L432.15 114.26L455.54 127.76L432.15 141.26ZM431.15 141.84L407.75 155.35L384.36 141.85L407.76 128.34L431.15 141.84ZM383.37 141.27L359.98 127.77L383.38 114.26L406.77 127.76L383.37 141.27ZM382.37 141.84L358.97 155.35L335.58 141.85L358.98 128.34L382.37 141.84ZM334.58 141.27L311.19 127.77L334.59 114.26L357.98 127.76L334.58 141.27ZM333.58 141.85L310.18 155.36L286.79 141.86L310.19 128.35L333.58 141.85ZM285.8 141.27L262.41 127.77L285.81 114.26L309.2 127.76L285.8 141.27ZM284.8 141.85L261.41 155.36L238.02 141.86L261.41 128.35L284.8 141.85ZM260.4 155.94L237 169.45L213.61 155.95L237.01 142.44L260.4 155.94ZM236.01 170.02L212.61 183.53L189.22 170.03L212.62 156.52L236.01 170.02ZM211.61 184.1L188.21 197.61L176.81 191.03C176.57 190.89 176.26 190.97 176.13 191.21C175.99 191.45 176.07 191.75 176.31 191.89L187.21 198.18L163.82 211.69L140.43 198.19L188.22 170.6L211.61 184.1ZM187.21 226.36L163.81 239.87L140.42 226.37L163.82 212.86L187.21 226.36ZM187.21 254.52L163.81 268.03L140.42 254.53L163.82 241.02L187.21 254.52ZM187.19 282.69L163.79 296.2L140.4 282.7L163.8 269.19L187.19 282.69ZM187.18 310.86L163.78 324.37L140.39 310.87L163.79 297.36L187.18 310.86ZM164.79 296.78L188.19 283.27L211.58 296.77L188.18 310.28L164.79 296.78ZM212.58 297.35L235.97 310.85L212.57 324.36L189.18 310.86L212.58 297.35ZM236.97 311.43L260.37 324.94L236.97 338.45L213.57 324.94L236.97 311.43ZM261.37 325.51L284.77 339.02L261.37 352.53L237.97 339.02L261.37 325.51ZM285.76 339.6L309.16 353.11L285.76 366.62L262.36 353.11L285.76 339.6ZM310.16 353.68L333.56 367.19L310.16 380.7L286.76 367.19L310.16 353.68ZM311.16 353.11L334.56 339.6L357.96 353.11L334.56 366.62L311.16 353.11ZM358.95 353.68L382.35 367.19L358.95 380.7L335.55 367.19L358.95 353.68ZM359.95 353.1L383.35 339.59L406.75 353.1L383.35 366.61L359.95 353.1ZM384.35 339.02L407.75 325.51L431.15 339.02L407.75 352.53L384.35 339.02ZM408.74 324.93L432.14 311.42L455.54 324.93L432.14 338.44L408.74 324.93ZM456.53 325.51L479.93 339.02L456.53 352.53L433.13 339.02L456.53 325.51ZM480.93 339.59L504.33 353.1L480.93 366.61L457.53 353.1L480.93 339.59ZM505.33 353.68L528.73 367.19L505.33 380.7L481.93 367.19L505.33 353.68ZM506.33 353.1L529.73 339.59L553.13 353.1L529.73 366.61L506.33 353.1ZM530.72 339.02L554.12 325.51L577.52 339.02L554.12 352.53L530.72 339.02ZM578.51 339.59L601.91 353.1L578.51 366.61L555.11 353.1L578.51 339.59ZM602.91 353.68L626.31 367.19L602.91 380.7L579.51 367.19L602.91 353.68ZM603.91 353.1L627.31 339.59L650.71 353.1L627.31 366.61L603.91 353.1ZM628.3 339.02L651.7 325.51L675.1 339.02L651.7 352.53L628.3 339.02ZM652.7 324.93L676.1 311.42L699.5 324.93L676.1 338.44L652.7 324.93ZM700.49 325.51L723.89 339.02L700.5 352.53L677.1 339.02L700.49 325.51ZM724.89 339.6L748.29 353.11L724.89 366.62L701.5 353.11L724.89 339.6ZM749.3 353.69L772.7 367.2L749.3 380.71L725.9 367.2L749.3 353.69ZM750.29 353.11L773.69 339.6L797.09 353.11L773.69 366.62L750.29 353.11ZM774.69 339.03L798.08 325.53L821.48 339.04L798.09 352.54L774.69 339.03ZM799.08 324.95L822.47 311.45L845.87 324.96L822.48 338.46L799.08 324.95ZM823.47 310.87L846.86 297.37L870.26 310.88L846.87 324.38L823.47 310.87ZM847.86 296.78L871.25 283.28L894.65 296.79L871.26 310.29L847.86 296.78ZM871.25 282.13L847.85 268.62L871.24 255.12L894.64 268.63L871.25 282.13ZM871.23 253.96L847.83 240.45L871.22 226.95L894.62 240.46L871.23 253.96ZM871.22 225.79L847.82 212.28L871.21 198.78L894.61 212.29L871.22 225.79ZM846.82 211.7L823.42 198.19L846.81 184.69L870.21 198.2L846.82 211.7ZM822.43 197.62L799.04 184.11L822.43 170.61L845.82 184.12L822.43 197.62ZM798.03 183.53L774.63 170.02L798.02 156.52L821.42 170.03L798.03 183.53ZM773.64 169.45L750.24 155.94L773.63 142.44L797.03 155.95L773.64 169.45ZM773.63 141.28L750.23 127.77L773.62 114.27L797.02 127.78L773.63 141.28ZM749.23 127.2L725.83 113.69L749.22 100.19L772.62 113.7L749.23 127.2ZM724.84 113.11L701.44 99.6L724.83 86.1L748.23 99.61L724.84 113.11ZM723.84 113.69L700.45 127.19L677.05 113.68L700.44 100.18L723.84 113.69ZM676.05 113.11L652.66 99.6L676.05 86.1L699.44 99.61L676.05 113.11ZM675.05 113.69L651.66 127.19L628.27 113.68L651.66 100.18L675.05 113.69ZM627.27 113.1L603.87 99.59L627.26 86.09L650.66 99.6L627.27 113.1ZM626.27 113.68L602.88 127.18L579.48 113.67L602.87 100.17L626.27 113.68ZM578.49 113.1L555.1 99.6L578.49 86.1L601.88 99.6L578.49 113.1ZM577.49 113.68L554.1 127.18L530.71 113.68L554.1 100.18L577.49 113.68ZM529.71 113.1L506.32 99.6L529.71 86.1L553.1 99.6L529.71 113.1ZM528.71 113.68L505.32 127.18L481.93 113.68L505.32 100.18L528.71 113.68ZM480.93 113.1L457.54 99.6L480.93 86.1L504.32 99.6L480.93 113.1ZM479.93 113.68L456.54 127.18L433.15 113.68L456.54 100.18L479.93 113.68ZM432.15 113.1L408.76 99.6L432.15 86.1L455.54 99.6L432.15 113.1ZM431.15 113.68L407.76 127.18L384.37 113.68L407.76 100.18L431.15 113.68ZM383.37 113.1L359.98 99.6L383.37 86.1L406.76 99.6L383.37 113.1ZM382.37 113.68L358.97 127.19L335.58 113.69L358.98 100.18L382.37 113.68ZM334.59 113.1L311.2 99.6L334.6 86.09L357.99 99.59L334.59 113.1ZM333.59 113.68L310.19 127.19L286.8 113.69L310.2 100.18L333.59 113.68ZM285.8 113.11L262.41 99.61L285.81 86.1L309.2 99.6L285.8 113.11ZM284.8 113.69L261.4 127.2L238.01 113.7L261.41 100.19L284.8 113.69ZM260.41 127.77L237.02 141.28L213.63 127.78L237.02 114.27L260.41 127.77ZM236.01 141.85L212.61 155.36L189.22 141.86L212.62 128.35L236.01 141.85ZM211.62 155.94L188.22 169.45L164.83 155.95L188.23 142.44L211.62 155.94ZM187.22 170.02L139.43 197.61L116.04 184.11L163.83 156.52L187.22 170.02ZM162.82 212.27L139.42 225.78L116.03 212.28L139.43 198.77L162.82 212.27ZM162.82 240.44L139.42 253.95L116.03 240.45L139.43 226.94L162.82 240.44ZM162.81 268.61L139.41 282.12L116.02 268.62L139.42 255.11L162.81 268.61ZM162.79 296.78L139.39 310.29L116 296.79L139.4 283.28L162.79 296.78ZM162.78 324.95L139.38 338.46L115.99 324.96L139.39 311.45L162.78 324.95ZM163.78 325.52L187.17 339.02L163.77 352.53L140.38 339.03L163.78 325.52ZM164.78 324.95L188.18 311.44L211.57 324.94L188.17 338.45L164.78 324.95ZM212.57 325.52L235.97 339.03L212.57 352.54L189.17 339.03L212.57 325.52ZM236.97 339.6L260.37 353.11L236.97 366.62L213.57 353.11L236.97 339.6ZM261.36 353.69L284.76 367.2L261.36 380.71L237.96 367.2L261.36 353.69ZM285.76 367.77L309.16 381.28L285.76 394.79L262.36 381.28L285.76 367.77ZM310.15 381.86L333.55 395.37L310.15 408.88L286.75 395.37L310.15 381.86ZM311.15 381.28L334.55 367.77L357.95 381.28L334.55 394.79L311.15 381.28ZM358.95 381.85L382.35 395.36L358.95 408.87L335.55 395.36L358.95 381.85ZM359.95 381.27L383.35 367.76L406.75 381.27L383.35 394.78L359.95 381.27ZM384.35 367.19L407.75 353.68L431.15 367.19L407.75 380.7L384.35 367.19ZM408.74 353.1L432.14 339.59L455.54 353.1L432.14 366.61L408.74 353.1ZM456.53 353.68L479.93 367.19L456.53 380.7L433.13 367.19L456.53 353.68ZM480.93 367.76L504.33 381.27L480.93 394.78L457.53 381.27L480.93 367.76ZM505.32 381.85L528.72 395.36L505.32 408.87L481.92 395.36L505.32 381.85ZM506.32 381.27L529.72 367.76L553.12 381.27L529.72 394.78L506.32 381.27ZM530.72 367.19L554.12 353.68L577.52 367.19L554.12 380.7L530.72 367.19ZM578.51 367.76L601.91 381.27L578.51 394.78L555.11 381.27L578.51 367.76ZM602.91 381.85L626.31 395.36L602.91 408.87L579.51 395.36L602.91 381.85ZM603.91 381.27L627.31 367.76L650.71 381.27L627.31 394.78L603.91 381.27ZM628.31 367.19L651.71 353.68L675.11 367.19L651.71 380.7L628.31 367.19ZM652.7 353.11L676.1 339.6L699.5 353.11L676.1 366.62L652.7 353.11ZM700.5 353.69L723.9 367.2L700.5 380.7L677.1 367.19L700.5 353.69ZM724.9 367.77L748.3 381.28L724.9 394.79L701.5 381.28L724.9 367.77ZM749.3 381.86L772.7 395.37L749.3 408.88L725.9 395.37L749.3 381.86ZM750.3 381.28L773.7 367.77L797.1 381.28L773.7 394.79L750.3 381.28ZM774.7 367.2L798.1 353.69L821.5 367.2L798.1 380.71L774.7 367.2ZM799.09 353.12L822.48 339.62L845.88 353.13L822.49 366.63L799.09 353.12ZM823.48 339.04L846.87 325.54L870.27 339.05L846.88 352.55L823.48 339.04ZM847.87 324.95L871.26 311.45L894.66 324.96L871.27 338.46L847.87 324.95ZM872.26 310.87L895.65 297.37L919.05 310.88L895.66 324.38L872.26 310.87ZM895.65 296.21L872.25 282.7L895.64 269.2L919.04 282.71L895.65 296.21ZM895.64 268.05L872.24 254.54L895.63 241.04L919.03 254.55L895.64 268.05ZM895.62 239.88L872.22 226.37L895.61 212.87L919.01 226.38L895.62 239.88ZM895.61 211.71L872.21 198.2L895.6 184.7L919 198.21L895.61 211.71ZM871.21 197.62L847.81 184.11L871.2 170.61L894.6 184.12L871.21 197.62ZM846.81 183.53L823.42 170.02L846.81 156.52L870.2 170.03L846.81 183.53ZM822.42 169.45L799.02 155.94L822.41 142.44L845.81 155.95L822.42 169.45ZM798.02 155.37L774.62 141.86L798.01 128.36L821.41 141.87L798.02 155.37ZM774.62 113.69L798.01 100.19L821.41 113.7L798.02 127.2L774.62 113.69ZM773.62 113.11L750.22 99.6L773.61 86.1L797.01 99.61L773.62 113.11ZM749.23 99.03L725.83 85.52L749.22 72.02L772.62 85.53L749.23 99.03ZM724.83 84.95L701.44 71.44L724.83 57.94L748.22 71.45L724.83 84.95ZM723.83 85.52L700.44 99.02L677.05 85.51L700.44 72.01L723.83 85.52ZM676.05 84.94L652.65 71.43L676.04 57.93L699.44 71.44L676.05 84.94ZM675.05 85.52L651.66 99.02L628.26 85.51L651.65 72.01L675.05 85.52ZM627.26 84.94L603.87 71.44L627.26 57.94L650.65 71.44L627.26 84.94ZM626.27 85.52L602.88 99.02L579.49 85.52L602.88 72.02L626.27 85.52ZM578.49 84.94L555.1 71.44L578.49 57.94L601.88 71.44L578.49 84.94ZM577.49 85.52L554.1 99.02L530.71 85.52L554.1 72.02L577.49 85.52ZM529.71 84.94L506.32 71.44L529.71 57.94L553.1 71.44L529.71 84.94ZM528.71 85.52L505.32 99.02L481.93 85.52L505.32 72.02L528.71 85.52ZM480.93 84.94L457.54 71.44L480.93 57.94L504.32 71.44L480.93 84.94ZM479.93 85.52L456.54 99.02L433.15 85.52L456.54 72.02L479.93 85.52ZM432.15 84.94L408.76 71.44L432.15 57.94L455.54 71.44L432.15 84.94ZM431.15 85.52L407.76 99.02L384.37 85.52L407.76 72.02L431.15 85.52ZM383.37 84.94L359.98 71.44L383.37 57.94L406.76 71.44L383.37 84.94ZM382.37 85.52L358.98 99.02L335.59 85.52L358.98 72.02L382.37 85.52ZM334.6 84.94L311.21 71.44L334.6 57.94L357.99 71.44L334.6 84.94ZM333.6 85.52L310.2 99.02L286.81 85.52L310.21 72.01L333.6 85.52ZM285.81 84.94L262.42 71.44L285.82 57.93L309.21 71.43L285.81 84.94ZM284.81 85.52L261.41 99.03L238.02 85.53L261.42 72.02L284.81 85.52ZM260.42 99.6L237.02 113.11L213.63 99.61L237.03 86.1L260.42 99.6ZM236.02 113.69L212.63 127.2L189.24 113.7L212.63 100.19L236.02 113.69ZM211.63 127.77L188.23 141.28L164.84 127.78L188.24 114.27L211.63 127.77ZM187.23 141.86L163.83 155.37L140.44 141.87L163.84 128.36L187.23 141.86ZM162.84 155.94L115.05 183.53L91.66 170.03L139.45 142.44L162.84 155.94ZM138.43 198.19L115.03 211.7L91.64 198.2L115.04 184.69L138.43 198.19ZM138.43 226.36L115.03 239.87L91.64 226.37L115.04 212.86L138.43 226.36ZM138.42 254.53L115.02 268.04L91.63 254.54L115.03 241.03L138.42 254.53ZM138.4 282.7L115 296.21L91.61 282.71L115.01 269.2L138.4 282.7ZM138.39 310.87L114.99 324.38L91.6 310.88L115 297.37L138.39 310.87ZM113.99 324.95L90.59 338.46L67.2 324.96L90.6 311.45L113.99 324.95ZM114.99 325.53L138.38 339.03L114.98 352.54L91.59 339.04L114.99 325.53ZM139.38 339.61L162.77 353.11L139.37 366.62L115.98 353.12L139.38 339.61ZM163.77 353.69L187.17 367.2L163.77 380.71L140.37 367.2L163.77 353.69ZM164.77 353.12L188.17 339.61L211.57 353.12L188.17 366.63L164.77 353.12ZM212.57 353.69L235.97 367.2L212.57 380.71L189.17 367.2L212.57 353.69ZM236.96 367.77L260.36 381.28L236.96 394.79L213.56 381.28L236.96 367.77ZM261.36 381.86L284.76 395.37L261.36 408.88L237.96 395.37L261.36 381.86ZM285.75 395.94L309.15 409.45L285.75 422.96L262.35 409.45L285.75 395.94ZM310.15 410.03L333.55 423.54L310.15 437.05L286.75 423.54L310.15 410.03ZM311.15 409.45L334.55 395.94L357.95 409.45L334.55 422.96L311.15 409.45ZM358.94 410.02L382.34 423.53L358.94 437.04L335.54 423.53L358.94 410.02ZM359.94 409.45L383.34 395.94L406.74 409.45L383.34 422.96L359.94 409.45ZM384.34 395.36L407.74 381.85L431.14 395.36L407.74 408.87L384.34 395.36ZM408.74 381.27L432.14 367.76L455.54 381.27L432.14 394.78L408.74 381.27ZM456.54 381.85L479.94 395.36L456.54 408.87L433.14 395.36L456.54 381.85ZM480.93 395.93L504.33 409.44L480.93 422.95L457.53 409.44L480.93 395.93ZM505.33 410.02L528.73 423.53L505.33 437.04L481.93 423.53L505.33 410.02ZM506.32 409.44L529.72 395.93L553.12 409.44L529.72 422.95L506.32 409.44ZM530.72 395.36L554.12 381.85L577.52 395.36L554.12 408.87L530.72 395.36ZM578.52 395.94L601.92 409.45L578.52 422.96L555.12 409.45L578.52 395.94ZM602.92 410.02L626.32 423.53L602.92 437.04L579.52 423.53L602.92 410.02ZM603.92 409.45L627.32 395.94L650.72 409.45L627.32 422.96L603.92 409.45ZM628.31 395.36L651.71 381.85L675.11 395.36L651.71 408.87L628.31 395.36ZM652.71 381.28L676.11 367.77L699.51 381.28L676.11 394.79L652.71 381.28ZM700.5 381.86L723.9 395.37L700.5 408.88L677.1 395.37L700.5 381.86ZM724.9 395.95L748.3 409.46L724.9 422.97L701.5 409.46L724.9 395.95ZM749.31 410.03L772.71 423.54L749.31 437.05L725.91 423.54L749.31 410.03ZM750.31 409.46L773.71 395.95L797.11 409.46L773.71 422.97L750.31 409.46ZM774.7 395.37L798.1 381.86L821.5 395.37L798.1 408.88L774.7 395.37ZM799.1 381.29L822.5 367.78L845.9 381.29L822.5 394.8L799.1 381.29ZM823.49 367.2L846.88 353.7L870.28 367.21L846.89 380.71L823.49 367.2ZM847.88 353.12L871.27 339.62L894.67 353.13L871.28 366.63L847.88 353.12ZM872.27 339.04L895.66 325.54L919.06 339.05L895.67 352.55L872.27 339.04ZM896.66 324.96L920.05 311.46L943.45 324.97L920.06 338.47L896.66 324.96ZM896.65 296.79L920.04 283.29L943.44 296.8L920.05 310.3L896.65 296.79ZM920.04 282.13L896.64 268.62L920.03 255.12L943.43 268.63L920.04 282.13ZM920.02 253.96L896.62 240.45L920.01 226.95L943.41 240.46L920.02 253.96ZM920.01 225.8L896.61 212.29L920 198.79L943.4 212.3L920.01 225.8ZM896.6 184.12L919.99 170.62L943.39 184.13L920 197.63L896.6 184.12ZM895.6 183.54L872.2 170.03L895.59 156.53L918.99 170.04L895.6 183.54ZM871.2 169.45L847.81 155.94L871.2 142.44L894.59 155.95L871.2 169.45ZM846.81 155.37L823.41 141.86L846.8 128.36L870.2 141.87L846.81 155.37ZM822.41 141.28L799.01 127.77L822.4 114.27L845.8 127.78L822.41 141.28ZM799.01 99.61L822.4 86.11L845.8 99.62L822.41 113.12L799.01 99.61ZM798.01 99.03L774.61 85.52L798 72.02L821.4 85.53L798.01 99.03ZM773.62 84.95L750.22 71.44L773.61 57.94L797.01 71.45L773.62 84.95ZM749.22 70.86L725.83 57.35L749.22 43.85L772.61 57.36L749.22 70.86ZM724.83 56.78L701.44 43.27L724.83 29.77L748.22 43.28L724.83 56.78ZM723.83 57.36L700.44 70.86L677.04 57.35L700.43 43.85L723.83 57.36ZM676.04 56.78L652.65 43.28L676.04 29.78L699.43 43.28L676.04 56.78ZM675.04 57.35L651.65 70.85L628.26 57.35L651.65 43.85L675.04 57.35ZM627.26 56.78L603.87 43.28L627.26 29.78L650.65 43.28L627.26 56.78ZM626.27 57.35L602.88 70.85L579.49 57.35L602.88 43.85L626.27 57.35ZM578.49 56.78L555.1 43.28L578.49 29.78L601.88 43.28L578.49 56.78ZM577.49 57.35L554.1 70.85L530.71 57.35L554.1 43.85L577.49 57.35ZM529.71 56.78L506.32 43.28L529.71 29.78L553.1 43.28L529.71 56.78ZM528.71 57.35L505.32 70.85L481.93 57.35L505.32 43.85L528.71 57.35ZM480.93 56.78L457.54 43.28L480.93 29.78L504.32 43.28L480.93 56.78ZM479.93 57.35L456.54 70.85L433.15 57.35L456.54 43.85L479.93 57.35ZM432.15 56.78L408.76 43.28L432.15 29.78L455.54 43.28L432.15 56.78ZM431.15 57.35L407.76 70.85L384.37 57.35L407.76 43.85L431.15 57.35ZM383.37 56.78L359.98 43.28L383.37 29.78L406.76 43.28L383.37 56.78ZM382.37 57.35L358.98 70.85L335.59 57.35L358.98 43.85L382.37 57.35ZM334.59 56.78L311.2 43.28L334.59 29.78L357.98 43.28L334.59 56.78ZM333.6 57.35L310.21 70.85L286.82 57.35L310.21 43.85L333.6 57.35ZM285.82 56.78L262.43 43.28L285.82 29.78L309.21 43.28L285.82 56.78ZM284.82 57.35L261.42 70.86L238.03 57.36L261.43 43.85L284.82 57.35ZM260.42 71.44L237.02 84.95L213.63 71.45L237.03 57.94L260.42 71.44ZM236.03 85.52L212.63 99.03L189.24 85.53L212.64 72.02L236.03 85.52ZM211.63 99.61L188.24 113.12L164.85 99.62L188.24 86.11L211.63 99.61ZM187.24 113.69L163.84 127.2L140.45 113.7L163.85 100.19L187.24 113.69ZM162.84 127.78L139.44 141.29L116.05 127.79L139.45 114.28L162.84 127.78ZM138.45 141.86L90.66 169.45L67.27 155.95L115.06 128.36L138.45 141.86ZM89.66 170.03L76.03 177.9C75.79 178.04 75.71 178.34 75.85 178.58C75.94 178.74 76.11 178.83 76.28 178.83C76.36 178.83 76.45 178.81 76.53 178.76L90.66 170.6L114.05 184.1L90.65 197.61L42.87 170.02L66.27 156.51L89.66 170.03ZM114.04 212.28L90.64 225.79L67.25 212.29L90.65 198.78L114.04 212.28ZM114.03 240.45L90.63 253.96L67.24 240.46L90.64 226.95L114.03 240.45ZM114.02 268.62L90.62 282.13L67.23 268.63L90.63 255.12L114.02 268.62ZM114 296.78L90.6 310.3L77.89 302.96C77.65 302.82 77.35 302.9 77.21 303.14C77.07 303.38 77.15 303.68 77.39 303.82L89.6 310.87L66.2 324.38L42.81 310.88L90.61 283.28L114 296.78ZM66.2 325.54L89.59 339.04L66.19 352.55L42.8 339.05L66.2 325.54ZM90.59 339.62L113.98 353.12L90.58 366.63L67.19 353.13L90.59 339.62ZM114.98 353.7L138.37 367.2L114.97 380.71L91.58 367.21L114.98 353.7ZM139.37 367.78L162.77 381.29L139.37 394.8L115.97 381.29L139.37 367.78ZM163.76 381.87L187.16 395.38L163.76 408.89L140.36 395.38L163.76 381.87ZM164.76 381.29L188.16 367.78L211.56 381.29L188.16 394.8L164.76 381.29ZM212.56 381.86L235.96 395.37L212.56 408.88L189.16 395.37L212.56 381.86ZM236.95 395.95L260.35 409.46L236.95 422.97L213.55 409.46L236.95 395.95ZM261.35 410.03L284.75 423.54L261.35 437.05L237.95 423.54L261.35 410.03ZM285.74 424.12L309.14 437.63L285.74 451.14L262.34 437.63L285.74 424.12ZM310.14 438.2L333.54 451.71L310.14 465.22L286.74 451.71L310.14 438.2ZM311.14 437.62L334.54 424.11L357.94 437.62L334.54 451.13L311.14 437.62ZM358.94 438.2L382.34 451.71L358.94 465.22L335.54 451.71L358.94 438.2ZM359.94 437.62L383.34 424.11L406.74 437.62L383.34 451.13L359.94 437.62ZM384.34 423.53L407.74 410.02L431.14 423.53L407.74 437.04L384.34 423.53ZM408.74 409.44L432.14 395.93L455.54 409.44L432.14 422.95L408.74 409.44ZM456.53 410.02L479.93 423.53L456.53 437.04L433.13 423.53L456.53 410.02ZM480.93 424.1L504.33 437.61L480.93 451.12L457.53 437.61L480.93 424.1ZM505.33 438.19L528.73 451.7L505.33 465.21L481.93 451.7L505.33 438.19ZM506.33 437.61L529.73 424.1L553.13 437.61L529.73 451.12L506.33 437.61ZM530.73 423.53L554.13 410.02L577.53 423.53L554.13 437.04L530.73 423.53ZM578.52 424.11L601.92 437.62L578.52 451.13L555.12 437.62L578.52 424.11ZM602.92 438.2L626.32 451.71L602.92 465.22L579.52 451.71L602.92 438.2ZM603.92 437.62L627.32 424.11L650.72 437.62L627.32 451.13L603.92 437.62ZM628.32 423.54L651.72 410.03L675.12 423.54L651.72 437.05L628.32 423.54ZM652.71 409.45L676.11 395.94L699.51 409.45L676.11 422.96L652.71 409.45ZM700.51 410.03L723.91 423.54L700.51 437.05L677.11 423.54L700.51 410.03ZM724.91 424.12L748.31 437.63L724.91 451.14L701.51 437.63L724.91 424.12ZM749.31 438.21L772.71 451.72L749.31 465.23L725.91 451.72L749.31 438.21ZM750.31 437.63L773.71 424.12L797.11 437.63L773.71 451.14L750.31 437.63ZM774.71 423.55L798.11 410.04L821.51 423.55L798.11 437.06L774.71 423.55ZM799.1 409.46L822.5 395.95L845.9 409.46L822.5 422.97L799.1 409.46ZM823.5 395.38L846.9 381.87L870.3 395.38L846.9 408.89L823.5 395.38ZM847.89 381.29L871.28 367.79L883.07 374.6C883.15 374.65 883.24 374.67 883.32 374.67C883.49 374.67 883.66 374.58 883.75 374.42C883.89 374.18 883.81 373.88 883.57 373.74L872.28 367.22L895.67 353.72L919.07 367.23L871.29 394.82L847.89 381.29ZM896.67 353.13L920.06 339.63L943.46 353.14L920.07 366.64L896.67 353.13ZM921.06 339.05L944.45 325.55L967.85 339.06L944.46 352.56L921.06 339.05ZM921.05 310.88L944.44 297.38L967.84 310.89L944.45 324.39L921.05 310.88ZM921.04 282.71L944.43 269.21L967.83 282.72L944.44 296.22L921.04 282.71ZM944.43 268.05L921.03 254.54L944.42 241.04L967.82 254.55L944.43 268.05ZM944.41 239.88L921.01 226.37L944.4 212.87L967.8 226.38L944.41 239.88ZM921 198.2L944.39 184.7L967.79 198.21L944.4 211.71L921 198.2ZM920.99 170.03L944.38 156.53L967.78 170.04L944.39 183.54L920.99 170.03ZM919.99 169.46L896.59 155.95L919.98 142.45L943.38 155.96L919.99 169.46ZM895.59 155.37L872.2 141.86L895.59 128.36L918.98 141.87L895.59 155.37ZM871.2 141.29L847.8 127.78L871.19 114.28L894.59 127.79L871.2 141.29ZM846.8 127.2L823.4 113.69L846.79 100.19L870.19 113.7L846.8 127.2ZM845.79 71.45L822.4 84.95L799 71.44L822.39 57.94L845.79 71.45ZM821.4 57.36L798.01 70.86L774.61 57.35L786.52 50.47C786.76 50.33 786.84 50.03 786.7 49.79C786.56 49.55 786.26 49.47 786.02 49.61L773.61 56.77L750.22 43.26L773.61 29.76L821.4 57.36ZM772.61 29.2L749.22 42.7L725.83 29.19L749.22 15.69L772.61 29.2ZM724.82 1.61L748.21 15.11L724.82 28.61L701.43 15.11L724.82 1.61ZM723.82 29.19L700.43 42.69L677.04 29.19L700.43 15.69L723.82 29.19ZM676.04 1.61L699.43 15.11L676.04 28.61L652.65 15.11L676.04 1.61ZM675.04 29.19L651.65 42.69L628.26 29.19L651.65 15.69L675.04 29.19ZM627.26 1.61L650.65 15.11L627.26 28.61L603.87 15.11L627.26 1.61ZM626.27 29.19L602.88 42.69L579.49 29.19L602.88 15.69L626.27 29.19ZM578.49 1.61L601.88 15.11L578.49 28.61L555.1 15.11L578.49 1.61ZM554.1 15.69L577.49 29.19L554.1 42.7L530.71 29.2L554.1 15.69ZM529.71 1.61L553.1 15.11L529.71 28.61L506.32 15.11L529.71 1.61ZM528.71 29.19L505.32 42.69L481.93 29.19L505.32 15.69L528.71 29.19ZM480.93 1.61L504.32 15.11L480.93 28.61L457.54 15.11L480.93 1.61ZM479.93 29.19L456.54 42.69L433.15 29.19L456.54 15.69L479.93 29.19ZM432.15 1.61L455.54 15.11L432.15 28.61L408.76 15.11L432.15 1.61ZM431.15 29.19L407.76 42.69L384.37 29.19L407.76 15.69L431.15 29.19ZM383.37 1.61L406.76 15.11L383.37 28.61L359.98 15.11L383.37 1.61ZM358.98 15.69L382.37 29.19L358.98 42.69L335.59 29.19L358.98 15.69ZM334.59 1.61L357.98 15.11L334.59 28.61L311.2 15.11L334.59 1.61ZM310.21 15.69L333.6 29.19L310.21 42.69L286.82 29.19L310.21 15.69ZM285.82 1.61L309.21 15.11L285.82 28.61L262.43 15.11L285.82 1.61ZM261.43 15.69L284.82 29.19L261.43 42.69L238.04 29.19L261.43 15.69ZM237.04 29.77L260.43 43.27L237.03 56.78L213.64 43.28L237.04 29.77ZM212.64 43.85L236.03 57.35L212.63 70.86L189.24 57.36L212.64 43.85ZM188.25 57.94L211.64 71.44L188.24 84.95L164.85 71.45L188.25 57.94ZM163.85 72.02L187.24 85.52L163.85 99.03L140.46 85.53L163.85 72.02ZM139.46 86.11L162.85 99.61L139.45 113.12L116.06 99.62L139.46 86.11ZM115.06 100.19L138.45 113.69L115.05 127.2L102.52 119.97C102.28 119.83 101.98 119.91 101.84 120.15C101.7 120.39 101.78 120.69 102.02 120.83L114.05 127.77L66.26 155.36L42.87 141.86L115.06 100.19ZM18.48 155.95L41.88 142.44L65.27 155.94L41.87 169.45L18.48 155.95ZM18.47 184.12L41.87 170.61L89.65 198.2L66.25 211.71L18.47 184.12ZM66.25 212.86L89.64 226.36L66.24 239.87L42.85 226.37L66.25 212.86ZM18.45 240.46L41.85 226.95L65.24 240.45L41.84 253.96L18.45 240.46ZM42.83 254.54L66.23 241.03L89.62 254.53L66.22 268.04L42.83 254.54ZM18.42 296.8L66.22 269.2L89.61 282.7L41.81 310.3L18.42 296.8ZM18.41 324.97L41.81 311.46L65.2 324.96L41.8 338.47L18.41 324.97ZM41.79 366.64L18.4 353.14L41.8 339.63L65.19 353.13L41.79 366.64ZM66.18 380.72L42.79 367.22L66.19 353.71L89.58 367.21L66.18 380.72ZM90.57 394.8L67.18 381.3L90.58 367.79L113.97 381.29L90.57 394.8ZM114.96 408.89L91.56 395.38L114.96 381.87L138.36 395.38L114.96 408.89ZM139.36 422.97L115.96 409.46L139.36 395.95L162.76 409.46L139.36 422.97ZM163.75 437.06L140.35 423.55L163.75 410.04L187.15 423.55L163.75 437.06ZM188.15 422.97L164.75 409.46L188.15 395.95L211.55 409.46L188.15 422.97ZM189.15 423.55L212.55 410.04L235.95 423.55L212.55 437.06L189.15 423.55ZM213.55 437.63L236.95 424.12L260.35 437.63L236.95 451.14L213.55 437.63ZM261.34 465.22L237.94 451.71L261.34 438.2L284.74 451.71L261.34 465.22ZM262.34 465.8L285.74 452.29L309.14 465.8L285.74 479.31L262.34 465.8ZM310.13 493.39L286.73 479.88L310.13 466.37L333.53 479.88L310.13 493.39ZM334.53 479.3L311.13 465.79L334.53 452.28L357.93 465.79L334.53 479.3ZM358.92 493.39L335.52 479.88L358.92 466.37L382.32 479.88L358.92 493.39ZM383.33 479.3L359.93 465.79L383.33 452.28L406.73 465.79L383.33 479.3ZM407.73 465.21L384.33 451.7L407.73 438.19L431.13 451.7L407.73 465.21ZM408.73 437.62L432.13 424.11L455.53 437.62L432.13 451.13L408.73 437.62ZM433.13 451.7L456.53 438.19L479.93 451.7L456.53 465.21L433.13 451.7ZM505.33 493.39L457.53 465.79L480.93 452.28L504.33 465.79L493.67 471.95C493.43 472.09 493.35 472.39 493.49 472.63C493.58 472.79 493.75 472.88 493.92 472.88C494 472.88 494.09 472.86 494.17 472.81L505.33 466.37L528.73 479.88L505.33 493.39ZM529.73 479.3L506.33 465.79L529.73 452.28L553.13 465.79L529.73 479.3ZM554.13 465.21L530.73 451.7L554.13 438.19L577.53 451.7L554.13 465.21ZM602.94 493.39L555.14 465.79L578.54 452.28L601.94 465.79L588.8 473.38C588.56 473.52 588.48 473.82 588.62 474.06C588.71 474.22 588.88 474.31 589.05 474.31C589.13 474.31 589.22 474.29 589.3 474.24L602.94 466.37L626.34 479.88L602.94 493.39ZM627.33 479.3L603.93 465.79L627.33 452.28L650.73 465.79L627.33 479.3ZM651.73 465.22L628.33 451.71L651.73 438.2L675.13 451.71L651.73 465.22ZM652.72 437.62L676.12 424.11L699.52 437.62L676.12 451.13L652.72 437.62ZM677.12 451.71L700.52 438.2L723.92 451.71L713.87 457.51C713.63 457.65 713.55 457.95 713.69 458.19C713.78 458.35 713.95 458.44 714.12 458.44C714.2 458.44 714.29 458.42 714.37 458.37L724.92 452.28L748.32 465.79L724.92 479.3L677.12 451.71ZM749.32 493.4L725.92 479.89L749.32 466.38L772.72 479.89L749.32 493.4ZM773.72 479.31L750.32 465.8L773.72 452.29L783.72 458.06C783.8 458.11 783.89 458.13 783.97 458.13C784.14 458.13 784.31 458.04 784.4 457.88C784.54 457.64 784.46 457.34 784.22 457.2L774.72 451.71L798.12 438.2L821.52 451.71L773.72 479.31ZM822.51 451.14L799.11 437.63L822.51 424.12L845.91 437.63L822.51 451.14ZM846.9 437.06L823.5 423.55L846.9 410.04L870.3 423.55L846.9 437.06ZM871.3 422.98L847.9 409.47L871.3 395.96L894.7 409.47L871.3 422.98ZM895.7 408.89L872.3 395.38L920.08 367.79L943.48 381.3L895.7 408.89ZM944.47 380.73L921.07 367.22L944.46 353.72L967.86 367.23L944.47 380.73ZM992.25 353.14L968.86 366.64L945.46 353.13L968.85 339.63L992.25 353.14ZM992.24 324.97L968.85 338.47L945.45 324.96L968.84 311.46L992.24 324.97ZM992.23 296.81L968.84 310.31L945.44 296.8L968.83 283.3L992.23 296.81ZM992.22 268.64L968.83 282.14L945.43 268.63L968.82 255.13L992.22 268.64ZM992.2 240.47L968.81 253.97L945.41 240.46L968.8 226.96L992.2 240.47ZM992.19 212.3L968.8 225.8L945.4 212.29L968.79 198.79L992.19 212.3ZM992.18 184.13L968.79 197.63L945.39 184.12L968.78 170.62L992.18 184.13ZM992.17 155.96L968.78 169.46L945.38 155.95L968.77 142.45L992.17 155.96ZM967.77 141.87L944.38 155.37L920.98 141.86L944.37 128.36L967.77 141.87ZM943.37 127.79L919.98 141.29L896.59 127.78L919.98 114.28L943.37 127.79ZM918.98 113.7L895.59 127.2L872.19 113.69L895.58 100.19L918.98 113.7ZM894.58 99.62L871.19 113.12L847.79 99.61L871.18 86.11L894.58 99.62Z" fill="#EFF0F1"/>
<path d="M223.56 206.45C223.39 206.45 223.22 206.36 223.13 206.2C222.99 205.96 223.07 205.66 223.31 205.52L272.33 177.22C272.57 177.08 272.87 177.16 273.01 177.4C273.15 177.64 273.07 177.94 272.83 178.08L223.81 206.38C223.73 206.43 223.64 206.45 223.56 206.45Z" fill="url(#paint0_linear)"/>
<path d="M272.43 347.22C272.26 347.22 272.09 347.13 272 346.97C271.86 346.73 271.94 346.43 272.18 346.29L326.84 314.73C327.08 314.59 327.38 314.67 327.52 314.91C327.66 315.15 327.58 315.45 327.34 315.59L272.68 347.15C272.6 347.2 272.51 347.22 272.43 347.22Z" fill="url(#paint1_linear)"/>
<path d="M613.85 319.11C613.68 319.11 613.51 319.02 613.42 318.86C613.28 318.62 613.36 318.32 613.6 318.18L661.14 290.73C661.38 290.59 661.68 290.67 661.82 290.91C661.96 291.15 661.88 291.45 661.64 291.59L614.1 319.04C614.02 319.09 613.94 319.11 613.85 319.11Z" fill="url(#paint2_linear)"/>
<path d="M621.29 202.14C621.12 202.14 620.95 202.05 620.86 201.89C620.72 201.65 620.8 201.35 621.04 201.21L671.32 172.18C671.56 172.04 671.86 172.12 672 172.36C672.14 172.6 672.06 172.9 671.82 173.04L621.54 202.07C621.46 202.12 621.38 202.14 621.29 202.14Z" fill="url(#paint3_linear)"/>
<path d="M1000.5 500H0.5V440H1000.5V500Z" fill="url(#paint4_linear)"/>
<path d="M1000.5 0H0.5V60H1000.5V0Z" fill="url(#paint5_linear)"/>
<path d="M1000.5 0H941.5V500H1000.5V0Z" fill="url(#paint6_linear)"/>
<path d="M59.5 0H0.5V500H59.5V0Z" fill="url(#paint7_linear)"/>
</g>
<defs>
<linearGradient id="paint0_linear" x1="223.055" y1="191.798" x2="273.075" y2="191.798" gradientUnits="userSpaceOnUse">
<stop stop-color="#9489FE"/>
<stop offset="1" stop-color="#F0F1F2"/>
</linearGradient>
<linearGradient id="paint1_linear" x1="327.583" y1="330.943" x2="271.925" y2="330.943" gradientUnits="userSpaceOnUse">
<stop stop-color="#F0F1F2"/>
<stop offset="1" stop-color="#40DCAF"/>
</linearGradient>
<linearGradient id="paint2_linear" x1="613.35" y1="304.89" x2="661.89" y2="304.89" gradientUnits="userSpaceOnUse">
<stop stop-color="#F0F1F2"/>
<stop offset="1" stop-color="#40DCAF"/>
</linearGradient>
<linearGradient id="paint3_linear" x1="620.794" y1="187.127" x2="672.069" y2="187.127" gradientUnits="userSpaceOnUse">
<stop stop-color="#9489FE"/>
<stop offset="1" stop-color="#F0F1F2"/>
</linearGradient>
<linearGradient id="paint4_linear" x1="500.5" y1="500.968" x2="500.5" y2="439.931" gradientUnits="userSpaceOnUse">
<stop stop-color="white"/>
<stop offset="1" stop-color="white" stop-opacity="0"/>
</linearGradient>
<linearGradient id="paint5_linear" x1="500.5" y1="-0.9677" x2="500.5" y2="60.0691" gradientUnits="userSpaceOnUse">
<stop stop-color="white"/>
<stop offset="1" stop-color="white" stop-opacity="0"/>
</linearGradient>
<linearGradient id="paint6_linear" x1="999.277" y1="250" x2="941.854" y2="250" gradientUnits="userSpaceOnUse">
<stop stop-color="white"/>
<stop offset="1" stop-color="white" stop-opacity="0"/>
</linearGradient>
<linearGradient id="paint7_linear" x1="1.7231" y1="250" x2="59.1464" y2="250" gradientUnits="userSpaceOnUse">
<stop stop-color="white"/>
<stop offset="1" stop-color="white" stop-opacity="0"/>
</linearGradient>
<clipPath id="clip0">
<rect width="1000" height="500" fill="white" transform="translate(0.5)"/>
</clipPath>
</defs>
</svg>
